<svg width="31" height="31" viewBox="0 0 31 31" fill="none" xmlns="http://www.w3.org/2000/svg">
<path d="M22.4449 0H8.5547C3.83764 0 0 3.83782 0 8.55488V22.4451C0 27.1624 3.83764 31 8.5547 31H22.4449C27.1624 31 31 27.1622 31 22.4451V8.55488C31.0002 3.83782 27.1624 0 22.4449 0ZM28.2497 22.4451C28.2497 25.6458 25.6458 28.2495 22.4451 28.2495H8.5547C5.35425 28.2497 2.75047 25.6458 2.75047 22.4451V8.55488C2.75047 5.35443 5.35425 2.75047 8.5547 2.75047H22.4449C25.6456 2.75047 28.2495 5.35443 28.2495 8.55488V22.4451H28.2497Z" fill="white"/>
<path d="M15.4996 7.51221C11.095 7.51221 7.51172 11.0955 7.51172 15.5001C7.51172 19.9045 11.095 23.4877 15.4996 23.4877C19.9042 23.4877 23.4875 19.9045 23.4875 15.5001C23.4875 11.0955 19.9042 7.51221 15.4996 7.51221ZM15.4996 20.737C12.6118 20.737 10.2622 18.3877 10.2622 15.4999C10.2622 12.6119 12.6116 10.2625 15.4996 10.2625C18.3876 10.2625 20.7371 12.6119 20.7371 15.4999C20.7371 18.3877 18.3874 20.737 15.4996 20.737Z" fill="white"/>
<path d="M23.8237 5.18018C23.2937 5.18018 22.7732 5.39471 22.3989 5.77061C22.0228 6.14467 21.8066 6.66543 21.8066 7.19719C21.8066 7.72729 22.023 8.24787 22.3989 8.62376C22.773 8.99783 23.2937 9.2142 23.8237 9.2142C24.3554 9.2142 24.8743 8.99783 25.2502 8.62376C25.6261 8.24787 25.8407 7.72711 25.8407 7.19719C25.8407 6.66543 25.6261 6.14467 25.2502 5.77061C24.8762 5.39471 24.3554 5.18018 23.8237 5.18018Z" fill="white"/>
</svg>
