<svg width="19" height="30" viewBox="0 0 19 30" fill="none" xmlns="http://www.w3.org/2000/svg">
<path d="M4.14979 30C4.04979 29.97 3.93979 29.94 3.83979 29.92C3.18979 29.75 2.30979 28.89 2.38979 27.97C2.42979 27.53 2.57979 27.15 2.89979 26.83C4.74979 24.98 6.59979 23.13 8.43979 21.28C8.47979 21.24 8.50979 21.2 8.56979 21.14C8.41979 21.12 8.29979 21.1 8.17979 21.08C6.93979 20.93 5.72979 20.67 4.55979 20.21C3.80979 19.92 3.12979 19.5 2.48979 19.03C2.12979 18.76 1.77979 18.47 1.44979 18.15C1.14979 17.86 0.969791 17.49 0.989791 17.07C1.03979 16.23 1.52979 15.34 2.44979 15.15C2.95979 15.05 3.43979 15.15 3.86979 15.41C4.21979 15.62 4.54979 15.87 4.88979 16.09C5.56979 16.53 6.31979 16.82 7.09979 17.03C8.02979 17.28 8.97979 17.43 9.94979 17.45C10.4098 17.46 10.8698 17.4 11.3198 17.34C12.2598 17.22 13.1798 16.99 14.0598 16.62C14.6798 16.36 15.2398 15.99 15.7798 15.6C16.1698 15.32 16.5998 15.13 17.0898 15.11C17.7798 15.08 18.2898 15.39 18.6398 15.95C18.8298 16.25 18.9498 16.58 18.9898 16.94C19.0398 17.42 18.8398 17.82 18.5298 18.16C18.1298 18.6 17.6298 18.92 17.1498 19.26C15.8898 20.15 14.4598 20.61 12.9598 20.88C12.4798 20.97 11.9898 21.03 11.4798 21.11C11.5198 21.15 11.5398 21.2 11.5798 21.23C13.3698 23.02 15.1598 24.81 16.9498 26.6C17.2098 26.86 17.4598 27.12 17.5598 27.48C17.7598 28.17 17.6098 28.77 17.1098 29.29C16.7998 29.62 16.4398 29.87 15.9798 29.94C15.9498 29.94 15.9298 29.96 15.8998 29.98C15.7798 29.98 15.6698 29.98 15.5498 29.98C15.4998 29.97 15.4598 29.95 15.4098 29.94C15.0898 29.88 14.7998 29.74 14.5598 29.51C14.4298 29.39 14.3098 29.26 14.1798 29.14C12.8298 27.79 11.4698 26.43 10.1198 25.08C10.0498 25.01 9.99979 24.99 9.91979 25.07C8.54979 26.44 7.17979 27.81 5.80979 29.19C5.44979 29.56 5.06979 29.89 4.52979 29.95C4.51979 29.95 4.50979 29.97 4.48979 29.97C4.38979 30 4.26979 30 4.14979 30Z" fill="white"/>
<path d="M10.0005 15.16C5.81046 15.15 2.37046 11.75 2.43046 7.45C2.50046 3.34 5.82046 0 10.0205 0C14.2905 0 17.6705 3.5 17.5905 7.74C17.5105 11.8 14.2005 15.16 10.0005 15.16ZM13.7505 7.58C13.7505 5.51 12.0705 3.83 10.0005 3.83C7.95046 3.83 6.26046 5.51 6.25046 7.54C6.24046 9.64 7.92046 11.29 9.91046 11.33C12.0705 11.38 13.7705 9.62 13.7505 7.58Z" fill="white"/>
</svg>
