<svg width="30" height="18" viewBox="0 0 30 18" fill="none" xmlns="http://www.w3.org/2000/svg">
<path d="M9.80318 1.1926C9.94483 0.811782 10.2045 0.578377 10.535 0.406394C11.1606 0.0869974 11.8335 -0.011279 12.5063 0.0010055C13.4742 0.0255745 14.4421 0.086997 15.3982 0.123851C15.835 0.14842 16.2599 0.160704 16.673 0.332687C17.2868 0.590661 17.6055 1.06976 17.6292 1.7454C17.641 2.28592 17.5701 2.83873 17.5465 3.39153C17.5111 4.55856 17.4639 5.72558 17.4639 6.89261C17.4639 7.26115 17.6174 7.62968 17.7118 7.99822C17.7354 8.09649 17.8062 8.19477 17.8652 8.28076C18.1013 8.62473 18.1721 8.62473 18.5026 8.40361C19.1164 7.99822 19.5768 7.44541 19.9899 6.83119C20.5565 5.99584 21.0523 5.13593 21.4772 4.22688C21.8904 3.31782 22.3153 2.39648 22.7048 1.47515C22.8937 1.00833 23.2006 0.811782 23.6846 0.824067C25.4905 0.836351 27.3083 0.836351 29.1143 0.824067C29.6927 0.824067 30.1059 1.34002 29.976 1.92967C29.8344 2.55618 29.5629 3.12127 29.2442 3.6495C28.3471 5.17278 27.3438 6.61007 26.2106 7.94908C25.8092 8.41589 25.4551 8.91955 25.2663 9.53378C25.0656 10.1971 25.1954 10.7868 25.6676 11.2782C26.5057 12.1504 27.3792 12.998 28.1936 13.8948C28.6776 14.423 29.1025 15.0127 29.5275 15.6023C29.799 15.9709 29.976 16.4131 29.9288 16.9045C29.8698 17.4573 29.6101 17.7398 29.0789 17.7644C28.0638 17.8258 27.0369 17.8627 26.0099 17.9118C25.4197 17.9364 24.8177 17.9732 24.2275 17.9978C23.7554 18.0224 23.3304 17.8381 22.9291 17.5924C22.2917 17.2116 21.7487 16.6956 21.2293 16.1551C20.6864 15.6023 20.1788 15.025 19.7657 14.3493C19.506 13.9193 18.7859 13.6859 18.3374 13.8702C17.9833 14.0053 17.818 14.3002 17.7826 14.6687C17.7236 15.2829 17.6882 15.8849 17.641 16.4991C17.5701 17.2484 17.1216 17.7153 16.4016 17.8135C14.9851 18.0101 13.5804 17.9364 12.1876 17.6538C11.1606 17.445 10.2753 16.929 9.43726 16.3025C8.28048 15.4549 7.30076 14.4107 6.38006 13.3174C5.9079 12.74 5.48296 12.1135 5.08163 11.487C3.7714 9.48464 2.53199 7.44541 1.45783 5.29563C0.938463 4.26373 0.419093 3.24411 0.147604 2.10166C0.0885847 1.84368 0.0531734 1.58571 0.00595784 1.32773C-0.0176499 1.20489 0.0295645 1.10661 0.135799 1.06976C0.430897 0.971481 0.725994 0.836351 1.02109 0.824067C1.97721 0.787213 2.94513 0.787214 3.90124 0.774929C4.31438 0.774929 4.72751 0.811783 5.14065 0.799498C5.69543 0.774929 6.07315 1.0329 6.30923 1.52428C6.54531 2.01567 6.75778 2.51933 6.98205 3.01071C7.79652 4.77968 8.68181 6.51179 9.83859 8.07192C10.0038 8.30533 10.2635 8.4896 10.5114 8.63701C10.8065 8.80899 11.0662 8.723 11.2433 8.41589C11.4557 8.05964 11.5502 7.65425 11.562 7.23658C11.5738 6.05727 11.6092 4.87795 11.5974 3.69864C11.5856 2.48248 11.0072 1.6717 9.89761 1.22946C9.874 1.22946 9.83859 1.21717 9.80318 1.1926Z" fill="white"/>
</svg>
